ISO-10303-21;
HEADER;
/* Generated by software containing ST-Developer
 * from STEP Tools, Inc. (www.steptools.com) 
 */

FILE_DESCRIPTION(
/* description */ (''),
/* implementation_level */ '2;1');

FILE_NAME(
/* name */ 'base_sunflower.step',
/* time_stamp */ '2026-09-20T14:40:43-06:00',
/* author */ (''),
/* organization */ (''),
/* preprocessor_version */ 'ST-DEVELOPER v20.2',
/* originating_system */ 'Autodesk Translation Framework v15.15.0.0',
/* authorisation */ '');

FILE_SCHEMA (('AUTOMOTIVE_DESIGN { 1 0 10303 214 3 1 1 }'));
ENDSEC;

DATA;
#10=MECHANICAL_DESIGN_GEOMETRIC_PRESENTATION_REPRESENTATION('',(#17),#489);
#11=ITEM_DEFINED_TRANSFORMATION($,$,#289,#315);
#12=(
REPRESENTATION_RELATIONSHIP($,$,#500,#499)
REPRESENTATION_RELATIONSHIP_WITH_TRANSFORMATION(#11)
SHAPE_REPRESENTATION_RELATIONSHIP()
);
#13=CONTEXT_DEPENDENT_SHAPE_REPRESENTATION(#12,#498);
#14=NEXT_ASSEMBLY_USAGE_OCCURRENCE('part_object_id_1:1',
'part_object_id_1:1','part_object_id_1:1',#502,#503,
'part_object_id_1:1');
#15=SHAPE_REPRESENTATION_RELATIONSHIP('SRR','None',#500,#16);
#16=ADVANCED_BREP_SHAPE_REPRESENTATION('',(#18),#488);
#17=STYLED_ITEM('',(#513),#18);
#18=MANIFOLD_SOLID_BREP('Body1 (1)',#275);
#19=CONICAL_SURFACE('',#300,3.83526730412807,5.5812860179952E-5);
#20=CONICAL_SURFACE('',#313,3892.07936218847,0.00262759011402234);
#21=B_SPLINE_CURVE_WITH_KNOTS('',3,(#412,#413,#414,#415),.UNSPECIFIED.,
 .F.,.F.,(4,4),(1.64812656540159,2.0027959064966),.UNSPECIFIED.);
#22=B_SPLINE_CURVE_WITH_KNOTS('',3,(#419,#420,#421,#422),.UNSPECIFIED.,
 .F.,.F.,(4,4),(1.648126814837,2.00280184523546),.UNSPECIFIED.);
#23=B_SPLINE_CURVE_WITH_KNOTS('',3,(#431,#432,#433,#434),.UNSPECIFIED.,
 .F.,.F.,(4,4),(-1.86308292349008,-1.73579045158995),.UNSPECIFIED.);
#24=B_SPLINE_CURVE_WITH_KNOTS('',3,(#435,#436,#437,#438),.UNSPECIFIED.,
 .F.,.F.,(4,4),(-1.86308350857286,-1.73578844634896),.UNSPECIFIED.);
#25=CYLINDRICAL_SURFACE('',#294,6.03535710392457);
#26=CYLINDRICAL_SURFACE('',#297,2.835242849934);
#27=CYLINDRICAL_SURFACE('',#314,7.0353624022247);
#28=FACE_BOUND('',#55,.T.);
#29=FACE_BOUND('',#60,.T.);
#30=FACE_BOUND('',#62,.T.);
#31=CIRCLE('',#292,3.8352673701144);
#32=CIRCLE('',#293,7.03536240314652);
#33=CIRCLE('',#295,6.0353571039456);
#34=CIRCLE('',#296,6.03535710511702);
#35=CIRCLE('',#298,2.83524285052897);
#36=CIRCLE('',#299,2.83524285012681);
#37=CIRCLE('',#301,3.83518922830769);
#38=CIRCLE('',#303,7.03536240222478);
#39=FACE_OUTER_BOUND('',#54,.T.);
#40=FACE_OUTER_BOUND('',#56,.T.);
#41=FACE_OUTER_BOUND('',#57,.T.);
#42=FACE_OUTER_BOUND('',#58,.T.);
#43=FACE_OUTER_BOUND('',#59,.T.);
#44=FACE_OUTER_BOUND('',#61,.T.);
#45=FACE_OUTER_BOUND('',#63,.T.);
#46=FACE_OUTER_BOUND('',#64,.T.);
#47=FACE_OUTER_BOUND('',#65,.T.);
#48=FACE_OUTER_BOUND('',#66,.T.);
#49=FACE_OUTER_BOUND('',#67,.T.);
#50=FACE_OUTER_BOUND('',#68,.T.);
#51=FACE_OUTER_BOUND('',#69,.T.);
#52=FACE_OUTER_BOUND('',#70,.T.);
#53=FACE_OUTER_BOUND('',#71,.T.);
#54=EDGE_LOOP('',(#178,#179,#180,#181));
#55=EDGE_LOOP('',(#182,#183));
#56=EDGE_LOOP('',(#184,#185,#186,#187));
#57=EDGE_LOOP('',(#188,#189,#190,#191));
#58=EDGE_LOOP('',(#192,#193,#194,#195));
#59=EDGE_LOOP('',(#196,#197));
#60=EDGE_LOOP('',(#198,#199));
#61=EDGE_LOOP('',(#200,#201,#202,#203));
#62=EDGE_LOOP('',(#204,#205));
#63=EDGE_LOOP('',(#206,#207,#208,#209,#210,#211,#212,#213));
#64=EDGE_LOOP('',(#214,#215,#216,#217,#218,#219,#220,#221));
#65=EDGE_LOOP('',(#222,#223,#224,#225));
#66=EDGE_LOOP('',(#226,#227,#228,#229));
#67=EDGE_LOOP('',(#230,#231,#232,#233));
#68=EDGE_LOOP('',(#234,#235,#236,#237));
#69=EDGE_LOOP('',(#238,#239,#240,#241));
#70=EDGE_LOOP('',(#242,#243,#244,#245));
#71=EDGE_LOOP('',(#246,#247,#248,#249));
#72=LINE('',#401,#94);
#73=LINE('',#403,#95);
#74=LINE('',#404,#96);
#75=LINE('',#444,#97);
#76=LINE('',#446,#98);
#77=LINE('',#448,#99);
#78=LINE('',#451,#100);
#79=LINE('',#453,#101);
#80=LINE('',#455,#102);
#81=LINE('',#457,#103);
#82=LINE('',#459,#104);
#83=LINE('',#460,#105);
#84=LINE('',#462,#106);
#85=LINE('',#464,#107);
#86=LINE('',#466,#108);
#87=LINE('',#468,#109);
#88=LINE('',#470,#110);
#89=LINE('',#471,#111);
#90=LINE('',#473,#112);
#91=LINE('',#475,#113);
#92=LINE('',#477,#114);
#93=LINE('',#479,#115);
#94=VECTOR('',#324,10.);
#95=VECTOR('',#325,10.);
#96=VECTOR('',#326,10.);
#97=VECTOR('',#353,10.);
#98=VECTOR('',#354,10.);
#99=VECTOR('',#355,10.);
#100=VECTOR('',#360,10.);
#101=VECTOR('',#361,10.);
#102=VECTOR('',#362,10.);
#103=VECTOR('',#363,10.);
#104=VECTOR('',#364,10.);
#105=VECTOR('',#365,10.);
#106=VECTOR('',#368,10.);
#107=VECTOR('',#369,10.);
#108=VECTOR('',#370,10.);
#109=VECTOR('',#371,10.);
#110=VECTOR('',#372,10.);
#111=VECTOR('',#373,10.);
#112=VECTOR('',#376,10.);
#113=VECTOR('',#379,10.);
#114=VECTOR('',#382,10.);
#115=VECTOR('',#385,10.);
#116=ELLIPSE('',#291,3892.24170350252,3892.15759724508);
#117=ELLIPSE('',#305,3892.23542190266,3892.15102640789);
#118=VERTEX_POINT('',#397);
#119=VERTEX_POINT('',#398);
#120=VERTEX_POINT('',#400);
#121=VERTEX_POINT('',#402);
#122=VERTEX_POINT('',#405);
#123=VERTEX_POINT('',#406);
#124=VERTEX_POINT('',#410);
#125=VERTEX_POINT('',#411);
#126=VERTEX_POINT('',#416);
#127=VERTEX_POINT('',#418);
#128=VERTEX_POINT('',#428);
#129=VERTEX_POINT('',#429);
#130=VERTEX_POINT('',#442);
#131=VERTEX_POINT('',#443);
#132=VERTEX_POINT('',#445);
#133=VERTEX_POINT('',#447);
#134=VERTEX_POINT('',#452);
#135=VERTEX_POINT('',#454);
#136=VERTEX_POINT('',#456);
#137=VERTEX_POINT('',#458);
#138=VERTEX_POINT('',#463);
#139=VERTEX_POINT('',#465);
#140=VERTEX_POINT('',#467);
#141=VERTEX_POINT('',#469);
#142=EDGE_CURVE('',#118,#119,#116,.T.);
#143=EDGE_CURVE('',#120,#118,#72,.T.);
#144=EDGE_CURVE('',#121,#120,#73,.T.);
#145=EDGE_CURVE('',#119,#121,#74,.T.);
#146=EDGE_CURVE('',#122,#123,#31,.T.);
#147=EDGE_CURVE('',#123,#122,#32,.T.);
#148=EDGE_CURVE('',#124,#125,#21,.T.);
#149=EDGE_CURVE('',#126,#124,#33,.T.);
#150=EDGE_CURVE('',#127,#126,#22,.T.);
#151=EDGE_CURVE('',#125,#127,#34,.T.);
#152=EDGE_CURVE('',#124,#126,#35,.T.);
#153=EDGE_CURVE('',#127,#125,#36,.T.);
#154=EDGE_CURVE('',#128,#129,#37,.T.);
#155=EDGE_CURVE('',#122,#128,#23,.T.);
#156=EDGE_CURVE('',#129,#123,#24,.T.);
#157=EDGE_CURVE('',#128,#129,#38,.T.);
#158=EDGE_CURVE('',#130,#131,#75,.T.);
#159=EDGE_CURVE('',#132,#130,#76,.T.);
#160=EDGE_CURVE('',#133,#132,#77,.T.);
#161=EDGE_CURVE('',#131,#133,#117,.T.);
#162=EDGE_CURVE('',#119,#131,#78,.T.);
#163=EDGE_CURVE('',#134,#121,#79,.T.);
#164=EDGE_CURVE('',#135,#134,#80,.T.);
#165=EDGE_CURVE('',#136,#135,#81,.T.);
#166=EDGE_CURVE('',#137,#136,#82,.T.);
#167=EDGE_CURVE('',#130,#137,#83,.T.);
#168=EDGE_CURVE('',#133,#118,#84,.T.);
#169=EDGE_CURVE('',#138,#132,#85,.T.);
#170=EDGE_CURVE('',#139,#138,#86,.T.);
#171=EDGE_CURVE('',#140,#139,#87,.T.);
#172=EDGE_CURVE('',#141,#140,#88,.T.);
#173=EDGE_CURVE('',#120,#141,#89,.T.);
#174=EDGE_CURVE('',#138,#137,#90,.T.);
#175=EDGE_CURVE('',#139,#136,#91,.T.);
#176=EDGE_CURVE('',#140,#135,#92,.T.);
#177=EDGE_CURVE('',#141,#134,#93,.T.);
#178=ORIENTED_EDGE('',*,*,#142,.F.);
#179=ORIENTED_EDGE('',*,*,#143,.F.);
#180=ORIENTED_EDGE('',*,*,#144,.F.);
#181=ORIENTED_EDGE('',*,*,#145,.F.);
#182=ORIENTED_EDGE('',*,*,#146,.F.);
#183=ORIENTED_EDGE('',*,*,#147,.F.);
#184=ORIENTED_EDGE('',*,*,#148,.F.);
#185=ORIENTED_EDGE('',*,*,#149,.F.);
#186=ORIENTED_EDGE('',*,*,#150,.F.);
#187=ORIENTED_EDGE('',*,*,#151,.F.);
#188=ORIENTED_EDGE('',*,*,#150,.T.);
#189=ORIENTED_EDGE('',*,*,#152,.F.);
#190=ORIENTED_EDGE('',*,*,#148,.T.);
#191=ORIENTED_EDGE('',*,*,#153,.F.);
#192=ORIENTED_EDGE('',*,*,#154,.F.);
#193=ORIENTED_EDGE('',*,*,#155,.F.);
#194=ORIENTED_EDGE('',*,*,#146,.T.);
#195=ORIENTED_EDGE('',*,*,#156,.F.);
#196=ORIENTED_EDGE('',*,*,#154,.T.);
#197=ORIENTED_EDGE('',*,*,#157,.F.);
#198=ORIENTED_EDGE('',*,*,#152,.T.);
#199=ORIENTED_EDGE('',*,*,#149,.T.);
#200=ORIENTED_EDGE('',*,*,#158,.F.);
#201=ORIENTED_EDGE('',*,*,#159,.F.);
#202=ORIENTED_EDGE('',*,*,#160,.F.);
#203=ORIENTED_EDGE('',*,*,#161,.F.);
#204=ORIENTED_EDGE('',*,*,#153,.T.);
#205=ORIENTED_EDGE('',*,*,#151,.T.);
#206=ORIENTED_EDGE('',*,*,#162,.F.);
#207=ORIENTED_EDGE('',*,*,#145,.T.);
#208=ORIENTED_EDGE('',*,*,#163,.F.);
#209=ORIENTED_EDGE('',*,*,#164,.F.);
#210=ORIENTED_EDGE('',*,*,#165,.F.);
#211=ORIENTED_EDGE('',*,*,#166,.F.);
#212=ORIENTED_EDGE('',*,*,#167,.F.);
#213=ORIENTED_EDGE('',*,*,#158,.T.);
#214=ORIENTED_EDGE('',*,*,#168,.F.);
#215=ORIENTED_EDGE('',*,*,#160,.T.);
#216=ORIENTED_EDGE('',*,*,#169,.F.);
#217=ORIENTED_EDGE('',*,*,#170,.F.);
#218=ORIENTED_EDGE('',*,*,#171,.F.);
#219=ORIENTED_EDGE('',*,*,#172,.F.);
#220=ORIENTED_EDGE('',*,*,#173,.F.);
#221=ORIENTED_EDGE('',*,*,#143,.T.);
#222=ORIENTED_EDGE('',*,*,#169,.T.);
#223=ORIENTED_EDGE('',*,*,#159,.T.);
#224=ORIENTED_EDGE('',*,*,#167,.T.);
#225=ORIENTED_EDGE('',*,*,#174,.F.);
#226=ORIENTED_EDGE('',*,*,#170,.T.);
#227=ORIENTED_EDGE('',*,*,#174,.T.);
#228=ORIENTED_EDGE('',*,*,#166,.T.);
#229=ORIENTED_EDGE('',*,*,#175,.F.);
#230=ORIENTED_EDGE('',*,*,#171,.T.);
#231=ORIENTED_EDGE('',*,*,#175,.T.);
#232=ORIENTED_EDGE('',*,*,#165,.T.);
#233=ORIENTED_EDGE('',*,*,#176,.F.);
#234=ORIENTED_EDGE('',*,*,#172,.T.);
#235=ORIENTED_EDGE('',*,*,#176,.T.);
#236=ORIENTED_EDGE('',*,*,#164,.T.);
#237=ORIENTED_EDGE('',*,*,#177,.F.);
#238=ORIENTED_EDGE('',*,*,#173,.T.);
#239=ORIENTED_EDGE('',*,*,#177,.T.);
#240=ORIENTED_EDGE('',*,*,#163,.T.);
#241=ORIENTED_EDGE('',*,*,#144,.T.);
#242=ORIENTED_EDGE('',*,*,#161,.T.);
#243=ORIENTED_EDGE('',*,*,#168,.T.);
#244=ORIENTED_EDGE('',*,*,#142,.T.);
#245=ORIENTED_EDGE('',*,*,#162,.T.);
#246=ORIENTED_EDGE('',*,*,#155,.T.);
#247=ORIENTED_EDGE('',*,*,#157,.T.);
#248=ORIENTED_EDGE('',*,*,#156,.T.);
#249=ORIENTED_EDGE('',*,*,#147,.T.);
#250=PLANE('',#290);
#251=PLANE('',#302);
#252=PLANE('',#304);
#253=PLANE('',#306);
#254=PLANE('',#307);
#255=PLANE('',#308);
#256=PLANE('',#309);
#257=PLANE('',#310);
#258=PLANE('',#311);
#259=PLANE('',#312);
#260=ADVANCED_FACE('',(#39,#28),#250,.T.);
#261=ADVANCED_FACE('',(#40),#25,.F.);
#262=ADVANCED_FACE('',(#41),#26,.F.);
#263=ADVANCED_FACE('',(#42),#19,.T.);
#264=ADVANCED_FACE('',(#43,#29),#251,.T.);
#265=ADVANCED_FACE('',(#44,#30),#252,.F.);
#266=ADVANCED_FACE('',(#45),#253,.T.);
#267=ADVANCED_FACE('',(#46),#254,.T.);
#268=ADVANCED_FACE('',(#47),#255,.T.);
#269=ADVANCED_FACE('',(#48),#256,.T.);
#270=ADVANCED_FACE('',(#49),#257,.T.);
#271=ADVANCED_FACE('',(#50),#258,.F.);
#272=ADVANCED_FACE('',(#51),#259,.F.);
#273=ADVANCED_FACE('',(#52),#20,.F.);
#274=ADVANCED_FACE('',(#53),#27,.T.);
#275=CLOSED_SHELL('',(#260,#261,#262,#263,#264,#265,#266,#267,#268,#269,
#270,#271,#272,#273,#274));
#276=DERIVED_UNIT_ELEMENT(#278,1.);
#277=DERIVED_UNIT_ELEMENT(#491,-3.);
#278=(
MASS_UNIT()
NAMED_UNIT(*)
SI_UNIT(.KILO.,.GRAM.)
);
#279=DERIVED_UNIT((#276,#277));
#280=MEASURE_REPRESENTATION_ITEM('density measure',
POSITIVE_RATIO_MEASURE(7850.),#279);
#281=PROPERTY_DEFINITION_REPRESENTATION(#286,#283);
#282=PROPERTY_DEFINITION_REPRESENTATION(#287,#284);
#283=REPRESENTATION('material name',(#285),#488);
#284=REPRESENTATION('density',(#280),#488);
#285=DESCRIPTIVE_REPRESENTATION_ITEM('Steel','Steel');
#286=PROPERTY_DEFINITION('material property','material name',#503);
#287=PROPERTY_DEFINITION('material property','density of part',#503);
#288=AXIS2_PLACEMENT_3D('',#394,#316,#317);
#289=AXIS2_PLACEMENT_3D('',#395,#318,#319);
#290=AXIS2_PLACEMENT_3D('',#396,#320,#321);
#291=AXIS2_PLACEMENT_3D('',#399,#322,#323);
#292=AXIS2_PLACEMENT_3D('',#407,#327,#328);
#293=AXIS2_PLACEMENT_3D('',#408,#329,#330);
#294=AXIS2_PLACEMENT_3D('',#409,#331,#332);
#295=AXIS2_PLACEMENT_3D('',#417,#333,#334);
#296=AXIS2_PLACEMENT_3D('',#423,#335,#336);
#297=AXIS2_PLACEMENT_3D('',#424,#337,#338);
#298=AXIS2_PLACEMENT_3D('',#425,#339,#340);
#299=AXIS2_PLACEMENT_3D('',#426,#341,#342);
#300=AXIS2_PLACEMENT_3D('',#427,#343,#344);
#301=AXIS2_PLACEMENT_3D('',#430,#345,#346);
#302=AXIS2_PLACEMENT_3D('',#439,#347,#348);
#303=AXIS2_PLACEMENT_3D('',#440,#349,#350);
#304=AXIS2_PLACEMENT_3D('',#441,#351,#352);
#305=AXIS2_PLACEMENT_3D('',#449,#356,#357);
#306=AXIS2_PLACEMENT_3D('',#450,#358,#359);
#307=AXIS2_PLACEMENT_3D('',#461,#366,#367);
#308=AXIS2_PLACEMENT_3D('',#472,#374,#375);
#309=AXIS2_PLACEMENT_3D('',#474,#377,#378);
#310=AXIS2_PLACEMENT_3D('',#476,#380,#381);
#311=AXIS2_PLACEMENT_3D('',#478,#383,#384);
#312=AXIS2_PLACEMENT_3D('',#480,#386,#387);
#313=AXIS2_PLACEMENT_3D('',#481,#388,#389);
#314=AXIS2_PLACEMENT_3D('',#482,#390,#391);
#315=AXIS2_PLACEMENT_3D('',#483,#392,#393);
#316=DIRECTION('axis',(0.,0.,1.));
#317=DIRECTION('refdir',(1.,0.,0.));
#318=DIRECTION('axis',(0.,0.,1.));
#319=DIRECTION('refdir',(1.,0.,0.));
#320=DIRECTION('center_axis',(0.999999999871434,-3.67855376473315E-6,-1.56077031151049E-5));
#321=DIRECTION('ref_axis',(-1.56077031152105E-5,0.,-0.9999999998782));
#322=DIRECTION('center_axis',(0.999999999871434,-3.67855376473315E-6,-1.56077031151049E-5));
#323=DIRECTION('ref_axis',(-7.13336048401635E-6,0.769669068907687,-0.638443047041699));
#324=DIRECTION('',(1.56076833319846E-5,-5.37792877222734E-6,0.999999999863739));
#325=DIRECTION('',(-3.67855376518119E-6,-0.999999999993234,0.));
#326=DIRECTION('',(-1.56077295572701E-5,-7.18827685604705E-6,-0.999999999852364));
#327=DIRECTION('center_axis',(0.999999999871434,-3.67855376473315E-6,-1.56077031151049E-5));
#328=DIRECTION('ref_axis',(5.87047837578328E-6,0.989743486219048,0.142855981507607));
#329=DIRECTION('center_axis',(0.999999999871434,-3.67855376473315E-6,-1.56077031151049E-5));
#330=DIRECTION('ref_axis',(-1.60353354343568E-5,-0.22860714411354,-0.973518758629293));
#331=DIRECTION('center_axis',(0.9999999999959,-2.63996502058439E-6,-1.10969674252948E-6));
#332=DIRECTION('ref_axis',(-1.09865384103091E-6,0.00417930164999188,-0.99999126668012));
#333=DIRECTION('center_axis',(-1.,0.,0.));
#334=DIRECTION('ref_axis',(0.,-1.,-2.92956058373787E-12));
#335=DIRECTION('center_axis',(0.999999999818713,1.11158711572314E-5,-1.5460010291682E-5));
#336=DIRECTION('ref_axis',(1.88527417079931E-5,-0.691995654845287,0.721901664577535));
#337=DIRECTION('center_axis',(0.999999999789977,5.92469953074545E-7,-2.04864622567923E-5));
#338=DIRECTION('ref_axis',(2.0488759787183E-5,-0.00417996171759901,0.999991263711964));
#339=DIRECTION('center_axis',(-1.,0.,0.));
#340=DIRECTION('ref_axis',(0.,1.42455798238872E-27,-1.));
#341=DIRECTION('center_axis',(0.999999999818713,1.11158711572314E-5,-1.5460010291682E-5));
#342=DIRECTION('ref_axis',(3.36709904395548E-6,-0.902350448657323,-0.431003094880524));
#343=DIRECTION('center_axis',(-0.999999962777247,0.000267512695119254,5.36885702672897E-5));
#344=DIRECTION('ref_axis',(-0.000267512695504802,-0.999999964218478,0.));
#345=DIRECTION('center_axis',(1.,0.,0.));
#346=DIRECTION('ref_axis',(0.,0.980449342270613,0.196771662698474));
#347=DIRECTION('center_axis',(1.,0.,0.));
#348=DIRECTION('ref_axis',(0.,0.,-1.));
#349=DIRECTION('center_axis',(-1.,0.,0.));
#350=DIRECTION('ref_axis',(0.,0.,-1.));
#351=DIRECTION('center_axis',(0.999999999818713,1.11158711572314E-5,-1.5460010291682E-5));
#352=DIRECTION('ref_axis',(-1.54600102926372E-5,0.,-0.999999999880494));
#353=DIRECTION('',(1.54599303882218E-5,7.18828194334586E-6,0.99999999985466));
#354=DIRECTION('',(-1.11158711585598E-5,0.999999999938219,0.));
#355=DIRECTION('',(-1.54600700728297E-5,5.37793351841081E-6,-0.999999999866032));
#356=DIRECTION('center_axis',(-0.999999999818713,-1.11158711572314E-5,1.5460010291682E-5));
#357=DIRECTION('ref_axis',(-1.84188881267124E-5,0.770594996672378,-0.637325153092393));
#358=DIRECTION('center_axis',(3.44202361538824E-5,0.999999999381784,-7.18881407440166E-6));
#359=DIRECTION('ref_axis',(0.,7.18881407866014E-6,0.99999999997416));
#360=DIRECTION('',(-0.99999877337328,3.4408936932463E-5,-0.00156590803067466));
#361=DIRECTION('',(0.999999999407624,-3.44202361547718E-5,0.));
#362=DIRECTION('',(0.,-7.18881407866014E-6,-0.99999999997416));
#363=DIRECTION('',(-0.999999991596563,3.44211344030812E-5,0.000124988232839525));
#364=DIRECTION('',(-5.57812447231761E-5,7.19073407109339E-6,0.999999998418373));
#365=DIRECTION('',(-0.999999999407624,3.44202361547718E-5,0.));
#366=DIRECTION('center_axis',(3.21527426534155E-5,-0.999999999468637,-5.37843059992816E-6));
#367=DIRECTION('ref_axis',(0.,5.37843060270827E-6,-0.999999999985536));
#368=DIRECTION('',(0.999998808345106,3.21444029521044E-5,0.00154346205198192));
#369=DIRECTION('',(0.999999999483101,3.21527426538805E-5,0.));
#370=DIRECTION('',(5.57811773591242E-5,5.38022411218211E-6,-0.999999998429757));
#371=DIRECTION('',(0.999999991672107,3.21534146408004E-5,-0.000124987773267754));
#372=DIRECTION('',(0.,-5.37843060270827E-6,0.999999999985536));
#373=DIRECTION('',(-0.999999999483101,-3.21527426538805E-5,0.));
#374=DIRECTION('center_axis',(0.,0.,1.));
#375=DIRECTION('ref_axis',(1.,0.,0.));
#376=DIRECTION('',(-5.3587551466339E-6,0.999999999985642,0.));
#377=DIRECTION('center_axis',(0.99999999842987,5.3587551382969E-6,5.57812061904342E-5));
#378=DIRECTION('ref_axis',(5.57812061912351E-5,0.,-0.999999998444228));
#379=DIRECTION('',(-5.35914025586561E-6,0.999999999961808,6.9039267009404E-6));
#380=DIRECTION('center_axis',(0.000124987995292662,-6.9032568189159E-6,
0.999999992165173));
#381=DIRECTION('ref_axis',(0.999999992189,0.,-0.00012498799529564));
#382=DIRECTION('',(0.,0.999999999976173,6.90325687283724E-6));
#383=DIRECTION('center_axis',(1.,0.,0.));
#384=DIRECTION('ref_axis',(0.,0.,-1.));
#385=DIRECTION('',(0.,1.,0.));
#386=DIRECTION('center_axis',(0.,0.,1.));
#387=DIRECTION('ref_axis',(1.,0.,0.));
#388=DIRECTION('center_axis',(0.999978438221521,-0.005063432905674,0.00418147572732151));
#389=DIRECTION('ref_axis',(0.00506347717265655,0.999987180517292,0.));
#390=DIRECTION('center_axis',(0.999999999999988,2.21557742412203E-8,1.51692970976179E-7));
#391=DIRECTION('ref_axis',(1.5159813698474E-7,0.00421938206259582,-0.999991098367874));
#392=DIRECTION('',(0.,0.,1.));
#393=DIRECTION('',(1.,0.,0.));
#394=CARTESIAN_POINT('',(0.,0.,0.));
#395=CARTESIAN_POINT('',(0.,0.,0.));
#396=CARTESIAN_POINT('Origin',(4.49975795256047,31.4230771151194,24.5642647570354));
#397=CARTESIAN_POINT('',(4.50007429113403,22.2323725835207,46.9985415928399));
#398=CARTESIAN_POINT('',(4.50013785643748,39.4999879618971,47.001463143639));
#399=CARTESIAN_POINT('Origin',(4.56085137278409,30.1249847350022,3939.18224972177));
#400=CARTESIAN_POINT('',(4.49934075323787,22.2326253391323,0.));
#401=CARTESIAN_POINT('',(4.49968251814891,22.2325075774306,21.8972222673403));
#402=CARTESIAN_POINT('',(4.49940427091683,39.4996501023674,0.));
#403=CARTESIAN_POINT('',(4.49937353637338,31.1445884662284,0.));
#404=CARTESIAN_POINT('',(4.49970353640361,39.4997879317144,19.1741845374976));
#405=CARTESIAN_POINT('',(4.49983634910151,35.2923051264,28.6752718215508));
#406=CARTESIAN_POINT('',(4.4998077836995,27.6621603431521,28.6433958001919));
#407=CARTESIAN_POINT('Origin',(4.49981594272266,31.4788734425229,28.266597634879));
#408=CARTESIAN_POINT('Origin',(4.49972989909718,31.5019270521206,22.7482693595242));
#409=CARTESIAN_POINT('Origin',(5.90000207616473,31.5019275206207,22.7482701744685));
#410=CARTESIAN_POINT('',(5.90000033378601,28.6506204536426,28.0676294762727));
#411=CARTESIAN_POINT('',(1.99975327065602,28.6506237255399,28.0676300389904));
#412=CARTESIAN_POINT('Ctrl Pts',(5.90000033378601,28.6506204536449,28.0676294762739));
#413=CARTESIAN_POINT('Ctrl Pts',(4.60066180774016,28.6506215432932,28.0676296635481));
#414=CARTESIAN_POINT('Ctrl Pts',(3.29909186814625,28.6506226351727,28.0676298513348));
#415=CARTESIAN_POINT('Ctrl Pts',(1.99975327065602,28.6506237255394,28.0676300389901));
#416=CARTESIAN_POINT('',(5.90000033378601,34.3086897024262,28.0912675941586));
#417=CARTESIAN_POINT('Origin',(5.90000033378601,31.5019275206253,22.7482701744704));
#418=CARTESIAN_POINT('',(1.99969074203506,34.3086832533431,28.0912807191125));
#419=CARTESIAN_POINT('Ctrl Pts',(1.99969074203506,34.3086832533431,28.0912807191125));
#420=CARTESIAN_POINT('Ctrl Pts',(3.29905011409401,34.3086854020636,28.0912763465103));
#421=CARTESIAN_POINT('Ctrl Pts',(4.60064096815062,34.308687554218,28.0912719665222));
#422=CARTESIAN_POINT('Ctrl Pts',(5.90000033378601,34.3086897024267,28.0912675941666));
#423=CARTESIAN_POINT('Origin',(1.99963933852459,31.5019378174419,22.7482745026883));
#424=CARTESIAN_POINT('Origin',(5.90000442140777,31.4788732116655,28.2665977019704));
#425=CARTESIAN_POINT('Origin',(5.90000033378601,31.4788732116631,28.2665977020542));
#426=CARTESIAN_POINT('Origin',(1.99972490950223,31.4788709008671,28.2666776048995));
#427=CARTESIAN_POINT('Origin',(4.49855676976699,31.4788737228921,28.2665976943307));
#428=CARTESIAN_POINT('',(5.90000033380421,35.2918099332748,28.6755887056524));
#429=CARTESIAN_POINT('',(5.90000033378601,27.661851910511,28.6431950845402));
#430=CARTESIAN_POINT('Origin',(5.90000033378601,31.4784988761951,28.2665224643188));
#431=CARTESIAN_POINT('Ctrl Pts',(4.49983634910151,35.2923051264,28.6752718215508));
#432=CARTESIAN_POINT('Ctrl Pts',(4.96652228940879,35.2921400810305,28.6753774471407));
#433=CARTESIAN_POINT('Ctrl Pts',(5.43331439466775,35.2919749916235,28.6754830911933));
#434=CARTESIAN_POINT('Ctrl Pts',(5.90000033380421,35.2918099332748,28.6755887056524));
#435=CARTESIAN_POINT('Ctrl Pts',(5.90000033378601,27.661851910511,28.6431950845402));
#436=CARTESIAN_POINT('Ctrl Pts',(5.43330487282802,27.6619547133454,28.6432619883526));
#437=CARTESIAN_POINT('Ctrl Pts',(4.96650324144218,27.6620575398175,28.6433289037162));
#438=CARTESIAN_POINT('Ctrl Pts',(4.49980778369949,27.6621603431521,28.6433958001919));
#439=CARTESIAN_POINT('Origin',(5.90000033378601,31.4880658473287,25.4299574217626));
#440=CARTESIAN_POINT('Origin',(5.90000033378601,31.5019270831447,22.7482695719353));
#441=CARTESIAN_POINT('Origin',(1.9996745393406,31.4087423212549,24.9581609277807));
#442=CARTESIAN_POINT('',(1.99923739729664,39.4997541307368,2.5));
#443=CARTESIAN_POINT('',(1.99992532629182,39.5000739925808,46.9975480364828));
#444=CARTESIAN_POINT('',(1.99949822413546,39.4998754053357,19.3711522129428));
#445=CARTESIAN_POINT('',(1.99942933751853,22.2325315140473,2.5));
#446=CARTESIAN_POINT('',(1.99933035159561,31.1374496705982,2.5));
#447=CARTESIAN_POINT('',(2.00011722843567,22.2322922237968,46.9946829993866));
#448=CARTESIAN_POINT('',(1.99973226506845,22.2324261377963,22.0941899653898));
#449=CARTESIAN_POINT('Origin',(2.06020245337844,30.137495653683,3939.17179151378));
#450=CARTESIAN_POINT('Origin',(0.239803776144981,39.4998958110809,13.7842288613319));
#451=CARTESIAN_POINT('',(3.24977748304599,39.5000309855253,46.999505765966));
#452=CARTESIAN_POINT('',(-6.3999992609024,39.5000252624111,0.));
#453=CARTESIAN_POINT('',(-0.354931303700018,39.4998171897443,0.));
#454=CARTESIAN_POINT('',(-6.3999992609024,39.5000813188935,7.79773711896306));
#455=CARTESIAN_POINT('',(-6.3999992609024,39.5000888223308,8.84150277537911));
#456=CARTESIAN_POINT('',(-3.40045280926976,39.4999780711011,7.7973622109496));
#457=CARTESIAN_POINT('',(-2.3304251378202,39.4999412395345,7.79722847008073));
#458=CARTESIAN_POINT('',(-3.40015731581141,39.4999399791781,2.5));
#459=CARTESIAN_POINT('',(-3.40054590511549,39.4999900720428,9.46630749981901));
#460=CARTESIAN_POINT('',(-0.230138399690634,39.4998308663783,2.5));
#461=CARTESIAN_POINT('Origin',(1.09995241676058,22.2324126107352,19.2302822640964));
#462=CARTESIAN_POINT('',(3.25048739188821,22.2323324170473,46.9966134921172));
#463=CARTESIAN_POINT('',(-3.40006478306711,22.2323579055023,2.5));
#464=CARTESIAN_POINT('',(0.199926131508051,22.2324736550838,2.5));
#465=CARTESIAN_POINT('',(-3.40036026951866,22.2323294051478,7.79724299636891));
#466=CARTESIAN_POINT('',(-3.40060526463513,22.2323057747997,12.1893180238074));
#467=CARTESIAN_POINT('',(-6.3999992609024,22.2322329565107,7.79761791457017));
#468=CARTESIAN_POINT('',(-1.90070097208485,22.2323776243154,7.7970555572911));
#469=CARTESIAN_POINT('',(-6.3999992609024,22.2322748954575,0.));
#470=CARTESIAN_POINT('',(-6.3999992609024,22.2322126963962,11.5645372921814));
#471=CARTESIAN_POINT('',(0.0751332274280185,22.2324830887262,0.));
#472=CARTESIAN_POINT('Origin',(-0.700377747416496,30.8661270141602,2.5));
#473=CARTESIAN_POINT('',(-3.40011104935326,30.866132893973,2.5));
#474=CARTESIAN_POINT('Origin',(-3.40025879442692,30.8661532402039,5.14865130186081));
#475=CARTESIAN_POINT('',(-3.40040653941519,30.8661576529605,7.79730260368628));
#476=CARTESIAN_POINT('Origin',(-4.90020290017128,30.8661723136902,7.79749006032944));
#477=CARTESIAN_POINT('',(-6.3999992609024,30.8661564715146,7.79767751676202));
#478=CARTESIAN_POINT('Origin',(-6.3999992609024,30.8661675453186,3.89883875846863));
#479=CARTESIAN_POINT('',(-6.3999992609024,30.8661437034607,0.));
#480=CARTESIAN_POINT('Origin',(-0.949963554739952,30.8661198616028,0.));
#481=CARTESIAN_POINT('Origin',(-25.2126699384858,30.3274926486159,3939.0148242817));
#482=CARTESIAN_POINT('Origin',(4.50000733137131,31.5019270521268,22.7482693595662));
#483=CARTESIAN_POINT('',(0.,0.,0.));
#484=UNCERTAINTY_MEASURE_WITH_UNIT(LENGTH_MEASURE(0.01),#490,
'DISTANCE_ACCURACY_VALUE',
'Maximum model space distance between geometric entities at asserted c
onnectivities');
#485=UNCERTAINTY_MEASURE_WITH_UNIT(LENGTH_MEASURE(0.01),#490,
'DISTANCE_ACCURACY_VALUE',
'Maximum model space distance between geometric entities at asserted c
onnectivities');
#486=UNCERTAINTY_MEASURE_WITH_UNIT(LENGTH_MEASURE(0.01),#490,
'DISTANCE_ACCURACY_VALUE',
'Maximum model space distance between geometric entities at asserted c
onnectivities');
#487=(
GEOMETRIC_REPRESENTATION_CONTEXT(3)
GLOBAL_UNCERTAINTY_ASSIGNED_CONTEXT((#484))
GLOBAL_UNIT_ASSIGNED_CONTEXT((#490,#492,#493))
REPRESENTATION_CONTEXT('','3D')
);
#488=(
GEOMETRIC_REPRESENTATION_CONTEXT(3)
GLOBAL_UNCERTAINTY_ASSIGNED_CONTEXT((#485))
GLOBAL_UNIT_ASSIGNED_CONTEXT((#490,#492,#493))
REPRESENTATION_CONTEXT('','3D')
);
#489=(
GEOMETRIC_REPRESENTATION_CONTEXT(3)
GLOBAL_UNCERTAINTY_ASSIGNED_CONTEXT((#486))
GLOBAL_UNIT_ASSIGNED_CONTEXT((#490,#492,#493))
REPRESENTATION_CONTEXT('','3D')
);
#490=(
LENGTH_UNIT()
NAMED_UNIT(*)
SI_UNIT(.MILLI.,.METRE.)
);
#491=(
LENGTH_UNIT()
NAMED_UNIT(*)
SI_UNIT($,.METRE.)
);
#492=(
NAMED_UNIT(*)
PLANE_ANGLE_UNIT()
SI_UNIT($,.RADIAN.)
);
#493=(
NAMED_UNIT(*)
SI_UNIT($,.STERADIAN.)
SOLID_ANGLE_UNIT()
);
#494=SHAPE_DEFINITION_REPRESENTATION(#496,#499);
#495=SHAPE_DEFINITION_REPRESENTATION(#497,#500);
#496=PRODUCT_DEFINITION_SHAPE('',$,#502);
#497=PRODUCT_DEFINITION_SHAPE('',$,#503);
#498=PRODUCT_DEFINITION_SHAPE($,$,#14);
#499=SHAPE_REPRESENTATION('',(#288,#315),#487);
#500=SHAPE_REPRESENTATION('',(#289),#488);
#501=PRODUCT_DEFINITION_CONTEXT('part definition',#509,'design');
#502=PRODUCT_DEFINITION('2026-09-20-14-32-02-994','(Unsaved)',#504,#501);
#503=PRODUCT_DEFINITION('2026-09-20-14-32-03-101','part_object_id_1',#505,
#501);
#504=PRODUCT_DEFINITION_FORMATION('',$,#511);
#505=PRODUCT_DEFINITION_FORMATION('',$,#512);
#506=PRODUCT_RELATED_PRODUCT_CATEGORY('(Unsaved)','(Unsaved)',(#511));
#507=PRODUCT_RELATED_PRODUCT_CATEGORY('part_object_id_1',
'part_object_id_1',(#512));
#508=APPLICATION_PROTOCOL_DEFINITION('international standard',
'automotive_design',2009,#509);
#509=APPLICATION_CONTEXT(
'Core Data for Automotive Mechanical Design Process');
#510=PRODUCT_CONTEXT('part definition',#509,'mechanical');
#511=PRODUCT('2026-09-20-14-32-02-994','(Unsaved)',$,(#510));
#512=PRODUCT('2026-09-20-14-32-03-101','part_object_id_1',$,(#510));
#513=PRESENTATION_STYLE_ASSIGNMENT((#514));
#514=SURFACE_STYLE_USAGE(.BOTH.,#515);
#515=SURFACE_SIDE_STYLE('',(#516));
#516=SURFACE_STYLE_FILL_AREA(#517);
#517=FILL_AREA_STYLE('Steel - Satin',(#518));
#518=FILL_AREA_STYLE_COLOUR('Steel - Satin',#519);
#519=COLOUR_RGB('Steel - Satin',0.627450980392157,0.627450980392157,0.627450980392157);
ENDSEC;
END-ISO-10303-21;
